# xmcd CD database file
#
# Track frame offsets:
#	183
#	12393
#	23543
#	33288
#	46058
#	58820
#	70928
#	82040
#	95468
#	108830
#	119635
#	130918
#	140770
#	153870
#	166635
#	180378
#	195605
#	209100
#	222600
#	236208
#
# Disc length: 3331 seconds
#
# Revision: 0
# Processed by: cddbd v1.5.2PL0 Copyright (c) Steve Scherf et al.
# Submitted via: CDex 1.70beta1
#
DISCID=1d0d0114
DTITLE=King Oliver ( Parade) - The King
DYEAR=1900
DGENRE=Jazz
TTITLE0=Just Gone
TTITLE1=Canal Street Blues
TTITLE2=Mandy Lee Blues
TTITLE3=I'm Going Away To Wear you Off My Mind
TTITLE4=Chimes Blues
TTITLE5=Weather Bird Rag
TTITLE6=Dippermouth Blues
TTITLE7=Froggie Moore
TTITLE8=Snake Rag
TTITLE9=Alligator Hop
TTITLE10=Zulus Ball
TTITLE11=Working Mans Blues
TTITLE12=Krooked Blues
TTITLE13=Hometown Blues
TTITLE14=Empty Bed Blues Pt 1
TTITLE15=Empty Bed Blues Pt 2
TTITLE16=In The Bottle Blues
TTITLE17=What Do You Want Me To Do
TTITLE18=Blue Blood Blues
TTITLE19=Jet Back Blues
EXTD=
EXTT0=
EXTT1=
EXTT2=
EXTT3=
EXTT4=
EXTT5=
EXTT6=
EXTT7=
EXTT8=
EXTT9=
EXTT10=
EXTT11=
EXTT12=
EXTT13=
EXTT14=
EXTT15=
EXTT16=
EXTT17=
EXTT18=
EXTT19=
PLAYORDER=
